<svg width="64" height="64" viewBox="0 0 64 64" fill="none" xmlns="http://www.w3.org/2000/svg">
  <rect width="64" height="64" rx="12" fill="url(#paint0_linear)" />
  
  <!-- Tractor -->
  <path d="M44 36H40V32H36V28H24V32H20V36H14V42H16V46H20V42H28V46H32V42H44V36Z" fill="white"/>
  
  <!-- Wheels -->
  <circle cx="18" cy="42" r="4" fill="#333"/>
  <circle cx="18" cy="42" r="2" fill="#666"/>
  <circle cx="30" cy="42" r="4" fill="#333"/>
  <circle cx="30" cy="42" r="2" fill="#666"/>
  
  <!-- Wheat Stalks -->
  <path d="M46 20L48 16L50 20L48 24L46 20Z" fill="#FFD700"/>
  <path d="M50 18L52 14L54 18L52 22L50 18Z" fill="#FFD700"/>
  <path d="M42 22L44 18L46 22L44 26L42 22Z" fill="#FFD700"/>
  <rect x="47" y="20" width="2" height="24" fill="#FFD700"/>
  
  <!-- Sprout -->
  <path d="M16 28C16 28 12 24 16 20C20 24 16 28 16 28Z" fill="#4CAF50"/>
  <path d="M20 24C20 24 24 20 20 16C16 20 20 24 20 24Z" fill="#4CAF50"/>
  <rect x="17" y="22" width="2" height="14" fill="#4CAF50"/>
  
  <defs>
    <linearGradient id="paint0_linear" x1="0" y1="0" x2="64" y2="64" gradientUnits="userSpaceOnUse">
      <stop offset="0" stop-color="#3b82f6"/>
      <stop offset="1" stop-color="#10b981"/>
    </linearGradient>
  </defs>
</svg>